<svg xmlns="http://www.w3.org/2000/svg" width="1600" height="600" viewBox="0 0 1600 600">
<defs>
<linearGradient id="bg" x1="0" y1="0" x2="1" y2="1">
  <stop offset="0" stop-color="#020918"/>
  <stop offset="0.5" stop-color="#0A1D3D"/>
  <stop offset="1" stop-color="#0B2B49"/>
</linearGradient>
<radialGradient id="glow" cx="0.78" cy="0.35" r="0.5">
  <stop offset="0" stop-color="#1E5BFF" stop-opacity="0.45"/>
  <stop offset="1" stop-color="#1E5BFF" stop-opacity="0"/>
</radialGradient>
</defs>
<rect width="1600" height="600" fill="url(#bg)"/>
<rect width="1600" height="600" fill="url(#glow)"/>
<line x1="0" y1="0" x2="0" y2="600" stroke="#1E5BFF" stroke-opacity="0.05"/>
<line x1="60" y1="0" x2="60" y2="600" stroke="#1E5BFF" stroke-opacity="0.05"/>
<line x1="120" y1="0" x2="120" y2="600" stroke="#1E5BFF" stroke-opacity="0.05"/>
<line x1="180" y1="0" x2="180" y2="600" stroke="#1E5BFF" stroke-opacity="0.05"/>
<line x1="240" y1="0" x2="240" y2="600" stroke="#1E5BFF" stroke-opacity="0.05"/>
<line x1="300" y1="0" x2="300" y2="600" stroke="#1E5BFF" stroke-opacity="0.05"/>
<line x1="360" y1="0" x2="360" y2="600" stroke="#1E5BFF" stroke-opacity="0.05"/>
<line x1="420" y1="0" x2="420" y2="600" stroke="#1E5BFF" stroke-opacity="0.05"/>
<line x1="480" y1="0" x2="480" y2="600" stroke="#1E5BFF" stroke-opacity="0.05"/>
<line x1="540" y1="0" x2="540" y2="600" stroke="#1E5BFF" stroke-opacity="0.05"/>
<line x1="600" y1="0" x2="600" y2="600" stroke="#1E5BFF" stroke-opacity="0.05"/>
<line x1="660" y1="0" x2="660" y2="600" stroke="#1E5BFF" stroke-opacity="0.05"/>
<line x1="720" y1="0" x2="720" y2="600" stroke="#1E5BFF" stroke-opacity="0.05"/>
<line x1="780" y1="0" x2="780" y2="600" stroke="#1E5BFF" stroke-opacity="0.05"/>
<line x1="840" y1="0" x2="840" y2="600" stroke="#1E5BFF" stroke-opacity="0.05"/>
<line x1="900" y1="0" x2="900" y2="600" stroke="#1E5BFF" stroke-opacity="0.05"/>
<line x1="960" y1="0" x2="960" y2="600" stroke="#1E5BFF" stroke-opacity="0.05"/>
<line x1="1020" y1="0" x2="1020" y2="600" stroke="#1E5BFF" stroke-opacity="0.05"/>
<line x1="1080" y1="0" x2="1080" y2="600" stroke="#1E5BFF" stroke-opacity="0.05"/>
<line x1="1140" y1="0" x2="1140" y2="600" stroke="#1E5BFF" stroke-opacity="0.05"/>
<line x1="1200" y1="0" x2="1200" y2="600" stroke="#1E5BFF" stroke-opacity="0.05"/>
<line x1="1260" y1="0" x2="1260" y2="600" stroke="#1E5BFF" stroke-opacity="0.05"/>
<line x1="1320" y1="0" x2="1320" y2="600" stroke="#1E5BFF" stroke-opacity="0.05"/>
<line x1="1380" y1="0" x2="1380" y2="600" stroke="#1E5BFF" stroke-opacity="0.05"/>
<line x1="1440" y1="0" x2="1440" y2="600" stroke="#1E5BFF" stroke-opacity="0.05"/>
<line x1="1500" y1="0" x2="1500" y2="600" stroke="#1E5BFF" stroke-opacity="0.05"/>
<line x1="1560" y1="0" x2="1560" y2="600" stroke="#1E5BFF" stroke-opacity="0.05"/>
<line x1="0" y1="0" x2="1600" y2="0" stroke="#1E5BFF" stroke-opacity="0.05"/>
<line x1="0" y1="60" x2="1600" y2="60" stroke="#1E5BFF" stroke-opacity="0.05"/>
<line x1="0" y1="120" x2="1600" y2="120" stroke="#1E5BFF" stroke-opacity="0.05"/>
<line x1="0" y1="180" x2="1600" y2="180" stroke="#1E5BFF" stroke-opacity="0.05"/>
<line x1="0" y1="240" x2="1600" y2="240" stroke="#1E5BFF" stroke-opacity="0.05"/>
<line x1="0" y1="300" x2="1600" y2="300" stroke="#1E5BFF" stroke-opacity="0.05"/>
<line x1="0" y1="360" x2="1600" y2="360" stroke="#1E5BFF" stroke-opacity="0.05"/>
<line x1="0" y1="420" x2="1600" y2="420" stroke="#1E5BFF" stroke-opacity="0.05"/>
<line x1="0" y1="480" x2="1600" y2="480" stroke="#1E5BFF" stroke-opacity="0.05"/>
<line x1="0" y1="540" x2="1600" y2="540" stroke="#1E5BFF" stroke-opacity="0.05"/>
<circle cx="1230" cy="300" r="150" fill="none" stroke="#1E5BFF" stroke-opacity="0.55" stroke-width="2.5"/>
<ellipse cx="1230" cy="300" rx="150" ry="58" fill="none" stroke="#1E5BFF" stroke-opacity="0.4" stroke-width="2"/>
<ellipse cx="1230" cy="300" rx="62" ry="150" fill="none" stroke="#1E5BFF" stroke-opacity="0.4" stroke-width="2"/>
<line x1="1080" y1="300" x2="1380" y2="300" stroke="#1E5BFF" stroke-opacity="0.4" stroke-width="2"/>
<defs><linearGradient id="ar" x1="0" y1="1" x2="1" y2="0">
<stop offset="0" stop-color="#00BFAE"/><stop offset="1" stop-color="#1E5BFF"/></linearGradient></defs>
<path d="M 1050 450 Q 1190 420 1360 150" fill="none" stroke="url(#ar)" stroke-width="12" stroke-linecap="round"/>
<path d="M 1360 150 l -42 12 l 30 30 z" fill="#1E5BFF"/>
<text x="90" y="250" text-anchor="start" style="font-family:Montserrat, 'Helvetica Neue', Helvetica, Arial, sans-serif;font-size:76px;font-weight:800;fill:#FFFFFF;letter-spacing:1px;">GLOBAL</text>
<text x="442" y="250" text-anchor="start" style="font-family:Montserrat, 'Helvetica Neue', Helvetica, Arial, sans-serif;font-size:76px;font-weight:800;fill:#3D7BFF;letter-spacing:1px;">ANALYTICS</text>
<rect x="93" y="282" width="520" height="3" fill="#00BFAE"/>
<text x="95" y="326" text-anchor="start" style="font-family:Montserrat, 'Helvetica Neue', Helvetica, Arial, sans-serif;font-size:24px;font-weight:400;fill:#9FB4D6;font-style:italic;">Inteligencia, estrategia y alcance global</text>
<text x="95" y="408" text-anchor="start" style="font-family:Montserrat, 'Helvetica Neue', Helvetica, Arial, sans-serif;font-size:30px;font-weight:600;fill:#FFFFFF;">Software de gestión a la medida de tu pyme.</text>
<rect x="95" y="445" width="190" height="44" rx="22" fill="none" stroke="#00BFAE" stroke-opacity="0.7"/>
<text x="190.0" y="473" text-anchor="middle" style="font-family:Montserrat, 'Helvetica Neue', Helvetica, Arial, sans-serif;font-size:18px;font-weight:600;fill:#00BFAE;">Automatiza</text>
<rect x="301" y="445" width="145" height="44" rx="22" fill="none" stroke="#00BFAE" stroke-opacity="0.7"/>
<text x="373.5" y="473" text-anchor="middle" style="font-family:Montserrat, 'Helvetica Neue', Helvetica, Arial, sans-serif;font-size:18px;font-weight:600;fill:#00BFAE;">Integra</text>
<rect x="462" y="445" width="175" height="44" rx="22" fill="none" stroke="#00BFAE" stroke-opacity="0.7"/>
<text x="549.5" y="473" text-anchor="middle" style="font-family:Montserrat, 'Helvetica Neue', Helvetica, Arial, sans-serif;font-size:18px;font-weight:600;fill:#00BFAE;">Visualiza</text>
</svg>